<svg preserveAspectRatio="none" width="100%" height="100%" overflow="visible" style="display: block;" viewBox="0 0 24 24" fill="none" xmlns="http://www.w3.org/2000/svg">
<g id="Frame">
<path id="Vector" d="M20 13C20 18 16.5 20.5 12.34 21.95C12.1222 22.0238 11.8855 22.0203 11.67 21.94C7.5 20.5 4 18 4 13V6C4 5.73478 4.10536 5.48043 4.29289 5.29289C4.48043 5.10536 4.73478 5 5 5C7 5 9.5 3.8 11.24 2.28C11.4519 2.099 11.7214 1.99955 12 1.99955C12.2786 1.99955 12.5481 2.099 12.76 2.28C14.51 3.81 17 5 19 5C19.2652 5 19.5196 5.10536 19.7071 5.29289C19.8946 5.48043 20 5.73478 20 6V13Z" stroke="var(--stroke-0, white)" stroke-width="2" stroke-linecap="round" stroke-linejoin="round"/>
<path id="Vector_2" d="M6.376 18.91C6.80271 17.7622 7.57042 16.7724 8.57602 16.0736C9.58163 15.3748 10.777 15.0004 12.0015 15.0008C13.2261 15.0011 14.4213 15.3761 15.4265 16.0754C16.4317 16.7748 17.1989 17.765 17.625 18.913" stroke="var(--stroke-0, white)" stroke-width="2" stroke-linecap="round" stroke-linejoin="round"/>
<path id="Vector_3" d="M12 15C14.2091 15 16 13.2091 16 11C16 8.79086 14.2091 7 12 7C9.79086 7 8 8.79086 8 11C8 13.2091 9.79086 15 12 15Z" stroke="var(--stroke-0, white)" stroke-width="2" stroke-linecap="round" stroke-linejoin="round"/>
</g>
</svg>
